<svg xmlns="http://www.w3.org/2000/svg" width="38" height="38" fill="none" xmlns:v="https://vecta.io/nano"><path d="M16.39 1.354c1.272-1.806 3.949-1.806 5.221 0 .888 1.261 2.552 1.707 3.952 1.059 2.004-.928 4.323.411 4.521 2.61.139 1.537 1.356 2.754 2.893 2.893 2.2.199 3.538 2.517 2.61 4.521-.648 1.4-.202 3.063 1.059 3.952 1.806 1.272 1.806 3.949 0 5.221-1.261.888-1.707 2.552-1.059 3.952.928 2.004-.411 4.323-2.61 4.521-1.537.139-2.754 1.356-2.893 2.893-.199 2.2-2.517 3.538-4.521 2.61-1.4-.648-3.063-.202-3.952 1.059-1.272 1.806-3.949 1.806-5.221 0-.888-1.261-2.552-1.707-3.952-1.059-2.004.928-4.323-.411-4.521-2.61-.139-1.537-1.356-2.754-2.893-2.893-2.2-.199-3.538-2.517-2.61-4.521.648-1.4.202-3.063-1.059-3.952-1.806-1.272-1.806-3.949 0-5.221 1.261-.888 1.707-2.552 1.059-3.952-.928-2.004.411-4.323 2.61-4.521C6.56 7.778 7.778 6.56 7.916 5.024c.199-2.2 2.517-3.538 4.521-2.61 1.4.648 3.063.202 3.952-1.059z" fill="#3ddc84"/></svg>